<svg width="24" height="24" viewBox="0 0 24 24" fill="none" xmlns="http://www.w3.org/2000/svg">
<path d="M12 21C16.9706 21 21 16.9706 21 12C21 7.02944 16.9706 3 12 3C7.02944 3 3 7.02944 3 12C3 16.9706 7.02944 21 12 21Z" stroke="#262626" stroke-width="1.6" stroke-linecap="round" stroke-linejoin="round"/>
<path d="M9.5 8.79991C9.72209 8.25685 10.1213 7.80488 10.6328 7.51745C11.1443 7.23002 11.738 7.12405 12.3173 7.21674C12.8967 7.30944 13.4276 7.59535 13.8239 8.02802C14.2202 8.46069 14.4584 9.01467 14.5 9.59991C14.5 11.4999 12 11.5999 12 13.4999M12 16.9999H12.01" stroke="#262626" stroke-width="1.6" stroke-linecap="round" stroke-linejoin="round"/>
</svg>
